# xmcd
#
# Track frame offsets: 
#        150
#        10860
#        21148
#        36825
#        49571
#        61216
#        73155
#        87641
#        100591
#        117637
#
# Disc length: 1755 seconds
#
# Revision: 0
# Processed by: cddbd v1.5.2PL0 Copyright (c) Steve Scherf et al.
# Submitted via: ExactAudioCopy v0.99pb4
#
DISCID=8106d90a
DTITLE=The Geezinslaw Brothers - If You Think I'm Crazy Now
DYEAR=1900
DGENRE=Country
TTITLE0=If You Think I'm Crazy Now
TTITLE1=All American Redneck
TTITLE2=The Diet Song
TTITLE3=When I'm Under the Table (I'll Be Over You)
TTITLE4=The Bible Against the Bible
TTITLE5=High Plains Jamboree
TTITLE6=The Last Thing I Needed (The First Thing This Morning)
TTITLE7=That's What She's Done
TTITLE8=I Gotta Take a Drink (Another Pretty Country Song)
TTITLE9=Life Can Have Meaning
EXTD=
EXTT0=
EXTT1=
EXTT2=
EXTT3=
EXTT4=
EXTT5=
EXTT6=
EXTT7=
EXTT8=
EXTT9=
PLAYORDER=
